<?xml version="1.0" encoding="UTF-8" standalone="no"?><!DOCTYPE svg PUBLIC "-//W3C//DTD SVG 1.1//EN" "http://www.w3.org/Graphics/SVG/1.1/DTD/svg11.dtd"><svg width="100%" height="100%" viewBox="0 0 77 125" version="1.1" xmlns="http://www.w3.org/2000/svg" xmlns:xlink="http://www.w3.org/1999/xlink" xml:space="preserve" xmlns:serif="http://www.serif.com/" style="fill-rule:evenodd;clip-rule:evenodd;stroke-linejoin:round;stroke-miterlimit:2;"><path id="pause" d="M25,12.5c0,-3.315 -1.317,-6.495 -3.661,-8.839c-2.344,-2.344 -5.524,-3.661 -8.839,-3.661c-3.315,0 -6.495,1.317 -8.839,3.661c-2.344,2.344 -3.661,5.524 -3.661,8.839c0,23.95 0,76.05 0,100c-0,3.315 1.317,6.495 3.661,8.839c2.344,2.344 5.524,3.661 8.839,3.661c3.315,-0 6.495,-1.317 8.839,-3.661c2.344,-2.344 3.661,-5.524 3.661,-8.839c0,-23.95 0,-76.05 0,-100Zm51.674,0c0,-3.315 -1.317,-6.495 -3.661,-8.839c-2.344,-2.344 -5.523,-3.661 -8.839,-3.661c-3.315,0 -6.494,1.317 -8.839,3.661c-2.344,2.344 -3.661,5.524 -3.661,8.839c0,23.95 0,76.05 0,100c0,3.315 1.317,6.495 3.661,8.839c2.345,2.344 5.524,3.661 8.839,3.661c3.316,-0 6.495,-1.317 8.839,-3.661c2.344,-2.344 3.661,-5.524 3.661,-8.839c0,-23.95 0,-76.05 0,-100Z" style="fill:#8e1c1a;"/></svg>