<?xml version="1.0" encoding="UTF-8" standalone="no"?><!DOCTYPE svg PUBLIC "-//W3C//DTD SVG 1.1//EN" "http://www.w3.org/Graphics/SVG/1.1/DTD/svg11.dtd"><svg width="100%" height="100%" viewBox="0 0 180 125" version="1.1" xmlns="http://www.w3.org/2000/svg" xmlns:xlink="http://www.w3.org/1999/xlink" xml:space="preserve" xmlns:serif="http://www.serif.com/" style="fill-rule:evenodd;clip-rule:evenodd;stroke-linejoin:round;stroke-miterlimit:2;"><path id="rwd" d="M125.105,98.031c0,0 0.02,6.743 0.04,13.485c0.009,2.889 -1.479,5.575 -3.931,7.101c-2.453,1.526 -5.52,1.673 -8.107,0.389c-23.018,-11.424 -73.103,-36.282 -98.178,-48.727c-2.827,-1.403 -4.619,-4.283 -4.628,-7.44c-0.01,-3.156 1.765,-6.047 4.584,-7.467c25.001,-12.593 74.938,-37.746 97.888,-49.306c2.579,-1.3 5.647,-1.171 8.109,0.341c2.461,1.511 3.964,4.188 3.973,7.076c0.02,6.876 0.041,13.807 0.041,13.807c-0,-0 26.173,-13.184 42.136,-21.224c2.579,-1.3 5.648,-1.171 8.109,0.341c2.461,1.511 3.965,4.188 3.973,7.077c0.071,24.032 0.219,74 0.29,98.032c0.009,2.889 -1.479,5.575 -3.931,7.101c-2.452,1.526 -5.52,1.673 -8.107,0.389c-16.01,-7.946 -42.261,-20.975 -42.261,-20.975Z" style="fill:#8e1c1a;"/></svg>