<?xml version="1.0" encoding="UTF-8" standalone="no"?><!DOCTYPE svg PUBLIC "-//W3C//DTD SVG 1.1//EN" "http://www.w3.org/Graphics/SVG/1.1/DTD/svg11.dtd"><svg width="100%" height="100%" viewBox="0 0 126 125" version="1.1" xmlns="http://www.w3.org/2000/svg" xmlns:xlink="http://www.w3.org/1999/xlink" xml:space="preserve" xmlns:serif="http://www.serif.com/" style="fill-rule:evenodd;clip-rule:evenodd;stroke-linejoin:round;stroke-miterlimit:2;"><path id="stop" d="M125.001,20.833c-0,-5.525 -2.195,-10.824 -6.102,-14.731c-3.907,-3.907 -9.206,-6.102 -14.732,-6.102c-23.12,-0 -60.213,-0 -83.334,-0c-5.525,0 -10.824,2.195 -14.731,6.102c-3.907,3.907 -6.102,9.206 -6.102,14.731c0,23.121 0,60.213 0,83.334c-0,5.525 2.195,10.824 6.102,14.731c3.907,3.907 9.206,6.102 14.731,6.102c23.121,0 60.214,0 83.334,0c5.526,-0 10.825,-2.195 14.732,-6.102c3.907,-3.907 6.102,-9.206 6.102,-14.731c-0,-23.121 -0,-60.213 -0,-83.334Z" style="fill:#8e1c1a;"/></svg>